<svg class="svg-icon" style="width: 1em; height: 1em;vertical-align: middle;fill: currentColor;overflow: hidden;" viewBox="0 0 1024 1024" version="1.1" xmlns="http://www.w3.org/2000/svg"><path d="M512 1024a512 512 0 1 1 512-512 512 512 0 0 1-512 512z m0-981.333333a469.333333 469.333333 0 1 0 469.333333 469.333333A469.333333 469.333333 0 0 0 512 42.666667z m128 661.333333a21.333333 21.333333 0 0 1-21.333333-21.333333V341.333333a21.333333 21.333333 0 0 1 42.666666 0v341.333334a21.333333 21.333333 0 0 1-21.333333 21.333333z m-256 0a21.333333 21.333333 0 0 1-21.333333-21.333333V341.333333a21.333333 21.333333 0 0 1 42.666666 0v341.333334a21.333333 21.333333 0 0 1-21.333333 21.333333z"  /></svg>