<svg class="svg-icon" style="width: 1em; height: 1em;vertical-align: middle;fill: currentColor;overflow: hidden;" viewBox="0 0 1024 1024" version="1.1" xmlns="http://www.w3.org/2000/svg"><path d="M512 992C246.912 992 32 777.088 32 512 32 246.912 246.912 32 512 32c265.088 0 480 214.912 480 480 0 265.088-214.912 480-480 480z m0-64c229.76 0 416-186.24 416-416S741.76 96 512 96 96 282.24 96 512s186.24 416 416 416z"  /><path d="M336 480a32 32 0 0 0 0 64h416a32 32 0 0 0 0-64h-416z"  /><path d="M316.928 512l151.36-170.784a32 32 0 1 0-47.872-42.432l-170.208 192a32 32 0 0 0 0 42.432l170.24 192a32 32 0 1 0 47.872-42.432L316.928 512z"  /></svg>