<svg class="svg-icon" style="width: 1em; height: 1em;vertical-align: middle;fill: currentColor;overflow: hidden;" viewBox="0 0 1024 1024" version="1.1" xmlns="http://www.w3.org/2000/svg"><path d="M268.125091 453.701818l472.994909-230.004363 15.266909 31.394909-472.994909 230.004363z"  /><path d="M181.527273 635.345455c-67.490909 0-121.018182-53.527273-121.018182-121.018182s53.527273-121.018182 121.018182-121.018182 121.018182 53.527273 121.018182 121.018182-53.527273 121.018182-121.018182 121.018182z m0-207.127273c-46.545455 0-86.109091 39.563636-86.109091 86.109091s39.563636 86.109091 86.109091 86.109091 86.109091-39.563636 86.109091-86.109091-39.563636-86.109091-86.109091-86.109091zM842.472727 318.836364c-67.490909 0-121.018182-53.527273-121.018182-121.018182s53.527273-121.018182 121.018182-121.018182 121.018182 53.527273 121.018182 121.018182-53.527273 121.018182-121.018182 121.018182z m0-207.127273c-46.545455 0-86.109091 39.563636-86.109091 86.109091s39.563636 86.109091 86.109091 86.109091 86.109091-39.563636 86.109091-86.109091-37.236364-86.109091-86.109091-86.109091zM842.472727 947.2c-67.490909 0-121.018182-53.527273-121.018182-121.018182s53.527273-121.018182 121.018182-121.018182 121.018182 53.527273 121.018182 121.018182-53.527273 121.018182-121.018182 121.018182z m0-207.127273c-46.545455 0-86.109091 39.563636-86.109091 86.109091s39.563636 86.109091 86.109091 86.109091 86.109091-39.563636 86.109091-86.109091-37.236364-86.109091-86.109091-86.109091z"  /><path d="M266.542545 574.859636l15.26691-31.371636 470.853818 229.073455-15.266909 31.418181z"  /></svg>